<svg width="40" height="40" viewBox="0 0 40 40" fill="none" xmlns="http://www.w3.org/2000/svg">
<path fill-rule="evenodd" clip-rule="evenodd" d="M19.3536 14.6464C19.5488 14.8417 19.5488 15.1583 19.3536 15.3536L14.7071 20L19.3536 24.6464C19.5488 24.8417 19.5488 25.1583 19.3536 25.3536C19.1583 25.5488 18.8417 25.5488 18.6464 25.3536L13.6464 20.3536C13.4512 20.1583 13.4512 19.8417 13.6464 19.6464L18.6464 14.6464C18.8417 14.4512 19.1583 14.4512 19.3536 14.6464Z" fill="#414141"/>
<path fill-rule="evenodd" clip-rule="evenodd" d="M26.3536 14.6464C26.5488 14.8417 26.5488 15.1583 26.3536 15.3536L21.7071 20L26.3536 24.6464C26.5488 24.8417 26.5488 25.1583 26.3536 25.3536C26.1583 25.5488 25.8417 25.5488 25.6464 25.3536L20.6464 20.3536C20.4512 20.1583 20.4512 19.8417 20.6464 19.6464L25.6464 14.6464C25.8417 14.4512 26.1583 14.4512 26.3536 14.6464Z" fill="#414141"/>
</svg>
