<svg width="40" height="40" viewBox="0 0 40 40" fill="none" xmlns="http://www.w3.org/2000/svg">
<path fill-rule="evenodd" clip-rule="evenodd" d="M20.6464 14.6464C20.8417 14.4512 21.1583 14.4512 21.3536 14.6464L26.3536 19.6464C26.5488 19.8417 26.5488 20.1583 26.3536 20.3536L21.3536 25.3536C21.1583 25.5488 20.8417 25.5488 20.6464 25.3536C20.4512 25.1583 20.4512 24.8417 20.6464 24.6464L25.2929 20L20.6464 15.3536C20.4512 15.1583 20.4512 14.8417 20.6464 14.6464Z" fill="#414141"/>
<path fill-rule="evenodd" clip-rule="evenodd" d="M13.6464 14.6464C13.8417 14.4512 14.1583 14.4512 14.3536 14.6464L19.3536 19.6464C19.5488 19.8417 19.5488 20.1583 19.3536 20.3536L14.3536 25.3536C14.1583 25.5488 13.8417 25.5488 13.6464 25.3536C13.4512 25.1583 13.4512 24.8417 13.6464 24.6464L18.2929 20L13.6464 15.3536C13.4512 15.1583 13.4512 14.8417 13.6464 14.6464Z" fill="#414141"/>
</svg>
