<svg width="136" height="24" viewBox="0 0 136 24" fill="none" xmlns="http://www.w3.org/2000/svg">
<path d="M11.1033 1.81699C11.4701 1.07374 12.5299 1.07374 12.8967 1.81699L15.294 6.67446C15.4397 6.9696 15.7213 7.17417 16.047 7.2215L21.4075 8.00043C22.2277 8.11961 22.5552 9.12759 21.9617 9.70612L18.0828 13.4871C17.8471 13.7169 17.7396 14.0479 17.7952 14.3723L18.7109 19.7111C18.851 20.528 17.9936 21.151 17.26 20.7653L12.4653 18.2446C12.174 18.0915 11.826 18.0915 11.5347 18.2446L6.74005 20.7653C6.00642 21.151 5.14899 20.528 5.2891 19.7111L6.20479 14.3723C6.26043 14.0479 6.15288 13.7169 5.91719 13.4871L2.03827 9.70612C1.44476 9.12759 1.77226 8.11961 2.59249 8.00043L7.95302 7.2215C8.27873 7.17417 8.5603 6.9696 8.70596 6.67446L11.1033 1.81699Z" fill="#BFBFBF"/>
<path d="M39.1033 1.81699C39.4701 1.07374 40.5299 1.07374 40.8967 1.81699L43.294 6.67446C43.4397 6.9696 43.7213 7.17417 44.047 7.2215L49.4075 8.00043C50.2277 8.11961 50.5552 9.12759 49.9617 9.70612L46.0828 13.4871C45.8471 13.7169 45.7396 14.0479 45.7952 14.3723L46.7109 19.7111C46.851 20.528 45.9936 21.151 45.26 20.7653L40.4653 18.2446C40.174 18.0915 39.826 18.0915 39.5347 18.2446L34.7401 20.7653C34.0064 21.151 33.149 20.528 33.2891 19.7111L34.2048 14.3723C34.2604 14.0479 34.1529 13.7169 33.9172 13.4871L30.0383 9.70612C29.4448 9.12759 29.7723 8.11961 30.5925 8.00043L35.953 7.2215C36.2787 7.17417 36.5603 6.9696 36.706 6.67446L39.1033 1.81699Z" fill="#BFBFBF"/>
<path d="M67.1033 1.81699C67.4701 1.07374 68.5299 1.07374 68.8967 1.81699L71.294 6.67446C71.4397 6.9696 71.7213 7.17417 72.047 7.2215L77.4075 8.00043C78.2277 8.11961 78.5552 9.12759 77.9617 9.70612L74.0828 13.4871C73.8471 13.7169 73.7396 14.0479 73.7952 14.3723L74.7109 19.7111C74.851 20.528 73.9936 21.151 73.26 20.7653L68.4653 18.2446C68.174 18.0915 67.826 18.0915 67.5347 18.2446L62.7401 20.7653C62.0064 21.151 61.149 20.528 61.2891 19.7111L62.2048 14.3723C62.2604 14.0479 62.1529 13.7169 61.9172 13.4871L58.0383 9.70612C57.4448 9.12759 57.7723 8.11961 58.5925 8.00043L63.953 7.2215C64.2787 7.17417 64.5603 6.9696 64.706 6.67446L67.1033 1.81699Z" fill="#BFBFBF"/>
<path d="M95.1033 1.81699C95.4701 1.07374 96.5299 1.07374 96.8967 1.81699L99.294 6.67446C99.4397 6.9696 99.7213 7.17417 100.047 7.2215L105.408 8.00043C106.228 8.11961 106.555 9.12759 105.962 9.70612L102.083 13.4871C101.847 13.7169 101.74 14.0479 101.795 14.3723L102.711 19.7111C102.851 20.528 101.994 21.151 101.26 20.7653L96.4653 18.2446C96.174 18.0915 95.826 18.0915 95.5347 18.2446L90.7401 20.7653C90.0064 21.151 89.149 20.528 89.2891 19.7111L90.2048 14.3723C90.2604 14.0479 90.1529 13.7169 89.9172 13.4871L86.0383 9.70612C85.4448 9.12759 85.7723 8.11961 86.5925 8.00043L91.953 7.2215C92.2787 7.17417 92.5603 6.9696 92.706 6.67446L95.1033 1.81699Z" fill="#BFBFBF"/>
<path d="M123.103 1.81699C123.47 1.07374 124.53 1.07374 124.897 1.81699L127.294 6.67446C127.44 6.9696 127.721 7.17417 128.047 7.2215L133.408 8.00043C134.228 8.11961 134.555 9.12759 133.962 9.70612L130.083 13.4871C129.847 13.7169 129.74 14.0479 129.795 14.3723L130.711 19.7111C130.851 20.528 129.994 21.151 129.26 20.7653L124.465 18.2446C124.174 18.0915 123.826 18.0915 123.535 18.2446L118.74 20.7653C118.006 21.151 117.149 20.528 117.289 19.7111L118.205 14.3723C118.26 14.0479 118.153 13.7169 117.917 13.4871L114.038 9.70612C113.445 9.12759 113.772 8.11961 114.592 8.00043L119.953 7.2215C120.279 7.17417 120.56 6.9696 120.706 6.67446L123.103 1.81699Z" fill="#BFBFBF"/>
</svg>
